@startuml
abstract "State" as C_0001914138303902600425
abstract C_0001914138303902600425 {
+State() : void
..
{abstract} +draw(float dt) = 0 : void
{abstract} +handleInput() = 0 : void
{abstract} +init() = 0 : void
+pause() : void
+resume() : void
{abstract} +update(float dt) = 0 : void
__
}
class "std::vector<MessageBox>" as C_0013797594922140478519
class C_0013797594922140478519 {
__
}
class "StateMachine" as C_0013531716651485178890
class C_0013531716651485178890 {
+StateMachine() = default : void
+~StateMachine() = default : void
..
+GetActiveState() : StateRef &
+ProcessStateChanges() : void
+addState(StateRef newState, bool isReplacing = true) : void
+removeState() : void
__
-isadding : bool
-isremoving : bool
-isreplacing : bool
-newstate : StateRef
-states : std::stack<StateRef>
}
class "sf::Vector2<T>" as C_0000025472147750072530
class C_0000025472147750072530 {
__
}
class "AssetManager" as C_0007056669967416308786
class C_0007056669967416308786 {
+AssetManager() = default : void
+~AssetManager() = default : void
..
+getFont(std::string name) : sf::Font &
+getTexture(std::string name) : sf::Texture &
+loadFont(std::string name, std::string filename) : void
+loadSound(std::string name, std::string filename) : void
+loadTexture(std::string name, std::string filename) : void
+play(std::string name) : void
+setSpriteTransparency(sf::Sprite & sprite, sf::Uint8 alpha = 255) : void
+setTextStyle(sf::Text & t, unsigned int characterSize = 24, const sf::Color & color = sf::Color::Black, sf::Uint32 style = sf::Text::Regular, const sf::Color & outlineColor = sf::Color::Black, float outlineThickness = 1.0f) : void
+setTextureSmooth(std::string name, bool smooth) : void
__
-fonts : std::map<std::string,sf::Font>
-soundbuffer : std::map<std::string,sf::SoundBuffer>
-sounds : std::map<std::string,sf::Sound>
-textures : std::map<std::string,sf::Texture>
}
class "nlohmann::adl_serializer" as C_0008758017994193186544
class C_0008758017994193186544 {
{static} +from_json(const json & j, sf::Color & color) : void
{static} +to_json(json & j, const sf::Color & color) : void
__
}
class "nlohmann::adl_serializer<sf::Color,void>" as C_0006027996033599488936
class C_0006027996033599488936 {
{static} +from_json(const json & j, sf::Color & color) : void
{static} +to_json(json & j, const sf::Color & color) : void
__
}
class "nlohmann::adl_serializer<sf::Vector2<T>,void>" as C_0010335427585328718123
class C_0010335427585328718123 {
{static} +from_json(const json & j, sf::Vector2<T> & v) : void
{static} +to_json(json & j, const sf::Vector2<T> & v) : void
__
}
class "Constants" as C_0015731897903105408204
class C_0015731897903105408204 {
+Constants(std::string path) : void
..
+operator[](std::string key) const : std::string
..
+get<T=std::string>(std::string key) const : T
__
-j : json
}
class "MultilineText" as C_0006075958540417117804
class C_0006075958540417117804 {
+MultilineText() = default : void
+MultilineText(const sf::Font & font, int numberCharacterLimit = cst.get<int>("maxNumberCharacterLimit"), int characterSize = cst.get<int>("fontSize")) : void
..
-draw(sf::RenderTarget & target, sf::RenderStates states) const : void
+getCharacterSize() const : int
+getColor() const : sf::Color
+getFont() const : sf::Font
+getGlobalBounds() const : sf::FloatRect
+getNumberCharacterLimit() const : int
+getNumberLines() const : int
+getPosition() const : sf::Vector2f
+getText() const : std::string
+setCharacterSize(int characterSize) : void
+setColor(const sf::Color & color) : void
+setFont(const sf::Font & font) : void
+setLineSpacing(int lineSpacing) : void
+setNumberCharacterLimit(int numberCharacterLimit) : void
+setPosition(float x, float y) : void
+setPosition(const sf::Vector2f & position) : void
#tabToSpaces(const std::string & text) const : std::string
+write(const std::string & text) : void
__
#characterSize : int
#color : sf::Color
#font : sf::Font
#lineSpacing : int
#lines : std::vector<sf::Text>
#numberCharacterLimit : int
#numberLines : int
-position : sf::Vector2f
#text : std::string
}
class "ScrollTextInPlace" as C_0017227335679142879242
class C_0017227335679142879242 {
+ScrollTextInPlace() = default : void
+ScrollTextInPlace(const sf::Font & font, int numberCharacterLimit = cst.get<int>("maxNumberCharacterLimit"), int characterSize = cst.get<int>("fontSize")) : void
..
+getMaxLinesToDisplay() const : int
+scrollDown() : void
+scrollUp() : void
+setMaxLinesToDisplay(int maxLinesToDisplay) : void
+write(const std::string & text) : void
__
-maxLinesToDisplay : int
-offset : int
}
class "InputBox" as C_0006905555226801011843
class C_0006905555226801011843 {
+InputBox() = default : void
+InputBox(const sf::Font & font, int numberCharacterLimit = cst.get<int>("maxNumberCharacterLimit"), int characterSize = cst.get<int>("fontSize")) : void
..
+isSelected() const : bool
+setSelected(bool s) : void
+typedOn(sf::Event input) : void
__
-selected : bool
}
class "MessageBox" as C_0014537214693256561526
class C_0014537214693256561526 {
+MessageBox() = default : void
+MessageBox(const sf::Font & font, std::string role, int numberCharacterLimit = cst.get<int>("maxNumberCharacterLimit"), int characterSize = cst.get<int>("fontSize")) : void
..
+getRole() const : std::string
+scrollDown() : void
+scrollUp() : void
+setRole(const std::string & role) : void
+write(const std::string & text) : void
__
-role : std::string
}
class "ChatBox" as C_0016724738070354194970
class C_0016724738070354194970 {
+ChatBox() : void
+~ChatBox() = default : void
..
+addMessage(const MessageBox & message) : void
-draw(sf::RenderTarget & target, sf::RenderStates states) const : void
+getOffset() const : int
+getTotalNumberLines() const : int
+scrollDown(int begin = 0, int end = -1) : void
+scrollDownMsg() : void
+scrollUp(int begin = 0, int end = -1) : void
+scrollUpMsg() : void
+updateLinesToDraw() : void
+updateTotalNumberLines() : void
__
-endl : int
-lines : std::vector<sf::Text>
-maxLinesToDisplay : int
-offset : int
-startl : int
-totalNumberLines : int
}
class "ChatManager" as C_0014275120282245944757
class C_0014275120282245944757 {
+ChatManager() = default : void
+~ChatManager() = default : void
..
+addChat(const std::string name) : void
+chatExists(const std::string name) : bool
+deleteChat(const std::string name) : void
+getActiveChatBox() : ChatBox &
+getActiveChatName() : std::string
+getActiveMessages() : ollama::messages &
+getChatNames() : std::vector<std::string>
+getChats() : std::map<std::string,ChatBox> &
+getMessages() : std::map<std::string,ollama::messages> &
+getNumberOfChats() : int
+setActiveChat(const std::string name) : void
__
-activeChat : std::string
-chats : std::map<std::string,ChatBox>
-messages : std::map<std::string,ollama::messages>
}
class "InputManager" as C_0011218267209626974551
class C_0011218267209626974551 {
+InputManager() = default : void
+~InputManager() constexpr = default : void
..
+getMousePosition(sf::RenderWindow & window) const : sf::Vector2i
+isMouseClickedInArea(sf::IntRect area, sf::Mouse::Button button, sf::Event & event, sf::RenderWindow & window) : bool
+isMouseClickedOutsideArea(sf::IntRect area, sf::Mouse::Button button, sf::Event & event, sf::RenderWindow & window) : bool
+isMouseInArea(sf::IntRect area, sf::RenderWindow & window) : bool
+isSpriteClicked(sf::Sprite sprite, sf::Mouse::Button button, sf::Event & event, sf::RenderWindow & window) : bool
+isWindowClosed(sf::Event & event) : bool
__
-lockMouseClicked : bool
}
enum "MusicStatus" as C_0008159535231821289035
enum C_0008159535231821289035 {
Stopped
Paused
Playing
NotExisting
}
class "MusicManager" as C_0013018981818162392349
class C_0013018981818162392349 {
+MusicManager() : void
+~MusicManager() = default : void
..
+enableLoop(bool enable) : void
+isMuted() : bool
+isPlaying() const : bool
+mute() : void
+openMusic(std::string filepath) : void
+play() : void
+setVolume(float volume) : void
+unMute() : void
__
-isMusicMuted : bool
-music : sf::Music
-status : MusicStatus
-volume : float
}
class "AppData" as C_0002878685250157375085
class C_0002878685250157375085 {
__
+assets : AssetManager
+chats : ChatManager
+input : InputManager
+machine : StateMachine
+music : MusicManager
+window : sf::RenderWindow
}
class "App" as C_0018282610363821501524
class C_0018282610363821501524 {
+App(int width, int height, std::string title) : void
+~App() : void
..
-run() : void
__
-clock : sf::Clock
-data : AppDataRef
-dt : const float
}
class "ThreadManager<ResultType>" as C_0008931800749696307144
class C_0008931800749696307144 {
+ThreadManager() : void
+~ThreadManager() : void
..
+getResult() : ResultType
+isReady() : bool
+reset() : void
+start<F,Args...>(F && f, Args &&... args) : void
__
-future : std::future<ResultType>
-isResultReady : std::atomic<bool>
-promise : std::promise<ResultType>
-thread : std::thread
}
class "ThreadManager<void>" as C_0002020853330831851796
class C_0002020853330831851796 {
__
}
class "OllamaState" as C_0010767441053444769080
class C_0010767441053444769080 {
+OllamaState(AppDataRef data) : void
+~OllamaState() = default : void
..
+draw(float dt) : void
+handleInput() : void
-handleScrolling(const sf::Event & event) : void
+init() : void
-sendMessage(sf::Event & event) : void
+update(float dt) : void
__
-activateScrolling : bool
-chatButton : sf::Sprite
-currentMessageLineCounter : unsigned int
-data : AppDataRef
-enterButton : sf::Sprite
-inputBox : InputBox
-inputBoxArea : sf::IntRect
-inputBoxBackground : sf::RectangleShape
-llmMessageBox : MessageBox
-ollamathread : ThreadManager<void>
-promptInput : std::string
-scrollCounter : int
-streamingCounter : unsigned int
-temp : std::string
-userMessageBox : MessageBox
}
class "ChatSelectionState" as C_0012132415960241293045
class C_0012132415960241293045 {
+ChatSelectionState(AppDataRef data) : void
+~ChatSelectionState() = default : void
..
+chatExists(std::string name) : bool
-deleteChat(std::string name) : void
+draw(float dt) : void
+handleInput() : void
+init() : void
-newChat(std::string name) : void
+update(float dt) : void
__
-convAreas : std::map<std::string,sf::IntRect>
-convBackgrounds : std::map<std::string,sf::RectangleShape>
-conversations : std::map<std::string,InputBox>
-data : AppDataRef
-deleteButtonActive : std::map<std::string,bool>
-deleteButtons : std::map<std::string,sf::Sprite>
}
C_0013797594922140478519 ..> C_0014537214693256561526
C_0013531716651485178890 ..> C_0001914138303902600425
C_0006027996033599488936 ..|> C_0008758017994193186544
C_0010335427585328718123 ..> C_0000025472147750072530
C_0010335427585328718123 ..|> C_0008758017994193186544
C_0006075958540417117804 <.. C_0016724738070354194970 : +<<friend>>
C_0006075958540417117804 <|-- C_0017227335679142879242

C_0017227335679142879242 <|-- C_0006905555226801011843

C_0006075958540417117804 <|-- C_0014537214693256561526

C_0016724738070354194970 ..> C_0014537214693256561526
C_0013797594922140478519 <|-- C_0016724738070354194970

C_0014275120282245944757 ..> C_0016724738070354194970
C_0013018981818162392349 o-- C_0008159535231821289035 : -status
C_0002878685250157375085 o-- C_0013531716651485178890 : +machine
C_0002878685250157375085 o-- C_0011218267209626974551 : +input
C_0002878685250157375085 o-- C_0007056669967416308786 : +assets
C_0002878685250157375085 o-- C_0013018981818162392349 : +music
C_0002878685250157375085 o-- C_0014275120282245944757 : +chats
C_0002020853330831851796 ..|> C_0008931800749696307144
C_0010767441053444769080 ..> C_0002878685250157375085
C_0010767441053444769080 o-- C_0006905555226801011843 : -inputBox
C_0010767441053444769080 o-- C_0014537214693256561526 : -userMessageBox
C_0010767441053444769080 o-- C_0014537214693256561526 : -llmMessageBox
C_0010767441053444769080 o-- C_0002020853330831851796 : -ollamathread
C_0001914138303902600425 <|-- C_0010767441053444769080

C_0012132415960241293045 ..> C_0002878685250157375085
C_0001914138303902600425 <|-- C_0012132415960241293045


'Generated with clang-uml, version 0.5.6
'LLVM version clang version 19.1.5 (Fedora 19.1.5-1.fc41)
@enduml
